<?xml version="1.0" standalone="no"?>
<!DOCTYPE svg PUBLIC "-//W3C//DTD SVG 20010904//EN"
 "http://www.w3.org/TR/2001/REC-SVG-20010904/DTD/svg10.dtd">
<svg version="1.0" xmlns="http://www.w3.org/2000/svg"
 width="600.000000pt" height="600.000000pt" viewBox="0 0 600.000000 600.000000"
 preserveAspectRatio="xMidYMid meet">
<metadata>
Created by potrace 1.14, written by Peter Selinger 2001-2017
</metadata>
<g transform="translate(0.000000,600.000000) scale(0.100000,-0.100000)"
fill="#000000" stroke="none">
<path d="M1529 5489 c-31 -31 -19 -74 36 -127 51 -49 59 -48 118 18 40 43 46
73 22 107 -17 24 -61 25 -76 2 -6 -11 -11 -10 -27 4 -25 23 -48 21 -73 -4z"/>
<path d="M4223 5485 c-25 -27 -15 -63 28 -105 l42 -40 31 23 c42 32 68 84 55
109 -14 26 -38 34 -62 19 -14 -9 -22 -10 -30 -2 -15 15 -50 13 -64 -4z"/>
<path d="M4612 5484 c-36 -25 -30 -73 19 -128 22 -25 48 -46 58 -46 24 0 99
75 107 106 8 30 -12 71 -35 77 -19 4 -61 -13 -61 -25 0 -4 -9 1 -20 12 -24 24
-38 25 -68 4z"/>
<path d="M1922 5478 c-21 -21 -14 -65 17 -95 l28 -29 -24 -29 c-22 -25 -26
-27 -35 -12 -32 58 -96 73 -155 37 -33 -19 -63 -74 -63 -113 0 -41 45 -113
115 -182 60 -61 69 -73 57 -85 -12 -11 -18 -8 -36 14 -32 39 -77 49 -123 25
-20 -10 -41 -26 -46 -35 -8 -14 -11 -14 -28 2 -26 24 -74 22 -102 -4 l-22 -21
-24 25 c-25 26 -51 30 -84 12 -33 -17 -46 -39 -47 -78 0 -39 14 -65 69 -124
22 -24 29 -37 18 -33 -10 4 -32 1 -50 -7 -79 -33 -104 -109 -65 -193 25 -54
157 -190 192 -199 20 -5 36 3 73 33 26 21 62 54 80 73 25 27 33 31 33 17 0
-20 77 -107 95 -107 15 0 87 72 96 97 9 25 -6 59 -31 73 -18 9 -25 8 -41 -6
-14 -12 -23 -15 -27 -7 -4 5 -17 14 -30 18 -17 5 -21 11 -16 23 22 54 6 120
-38 157 -47 40 -124 27 -162 -26 l-14 -21 -11 21 c-10 19 -5 28 53 84 l66 62
30 -46 c32 -50 120 -135 157 -152 19 -8 30 -4 77 32 86 67 156 158 156 205 0
17 5 15 32 -13 54 -55 61 -56 107 -10 49 50 57 73 37 104 -18 27 -36 31 -69
14 -16 -9 -22 -9 -25 0 -2 6 -17 11 -33 11 -22 0 -32 -7 -41 -25 l-11 -25 -18
29 c-10 16 -26 32 -37 35 -17 6 -13 14 37 61 73 69 105 132 99 190 -7 54 -33
91 -76 106 l-34 11 21 22 c42 45 10 112 -40 85 -15 -8 -24 -8 -32 0 -14 14
-40 14 -55 -1z"/>
<path d="M1218 5463 c-19 -22 -16 -44 11 -82 34 -48 59 -50 98 -7 19 20 33 46
33 61 0 30 -34 52 -55 35 -10 -8 -19 -8 -34 -1 -27 15 -35 14 -53 -6z"/>
<path d="M3869 5399 c-27 -27 -20 -67 18 -110 48 -54 58 -54 108 -8 35 32 45
48 45 73 0 18 -5 37 -12 44 -15 15 -50 16 -65 1 -8 -8 -17 -7 -34 5 -30 21
-35 20 -60 -5z"/>
<path d="M874 5355 c-27 -27 -30 -45 -13 -78 19 -37 82 -97 102 -97 20 0 87
61 105 96 32 62 -38 128 -87 83 -16 -15 -22 -16 -28 -6 -16 27 -54 27 -79 2z"/>
<path d="M2198 5345 c-60 -33 -47 -97 36 -173 51 -47 56 -47 112 5 45 41 64
74 64 108 -1 60 -51 87 -100 52 -20 -14 -23 -14 -41 4 -22 22 -35 23 -71 4z"/>
<path d="M4385 5335 c-5 -2 -22 -6 -37 -9 -31 -7 -68 -54 -75 -97 -9 -57 61
-158 162 -235 33 -25 34 -25 62 -7 15 10 50 39 78 65 l50 47 42 -48 c58 -66
109 -104 132 -96 27 8 135 114 154 150 28 56 26 93 -9 134 -18 22 -35 31 -56
31 -30 0 -88 -28 -88 -42 0 -4 -4 -8 -10 -8 -5 0 -10 6 -10 13 0 19 -44 40
-82 40 -18 0 -40 8 -48 17 -43 48 -104 49 -151 4 -27 -26 -27 -26 -38 -5 -12
22 -59 50 -76 46z"/>
<path d="M5003 5320 c-26 -11 -44 -41 -40 -68 6 -41 85 -131 115 -132 20 0
110 97 114 122 10 60 -40 98 -88 69 -28 -17 -30 -17 -48 1 -22 20 -22 20 -53
8z"/>
<path d="M1440 5278 c-31 -34 -26 -78 16 -126 19 -23 48 -50 63 -61 l29 -21
46 41 c76 67 96 129 56 169 -26 26 -62 26 -85 0 l-18 -20 -14 20 c-19 27 -67
26 -93 -2z"/>
<path d="M1074 5222 c-52 -44 -58 -106 -16 -173 31 -47 138 -149 158 -149 15
0 101 68 136 108 75 85 78 174 8 216 -41 24 -90 13 -118 -26 -13 -18 -15 -18
-43 11 -34 36 -90 42 -125 13z"/>
<path d="M3573 5223 c-37 -14 18 -121 63 -123 20 0 75 71 72 92 -4 31 -33 46
-58 31 -12 -8 -21 -9 -25 -3 -6 10 -31 12 -52 3z"/>
<path d="M4020 5140 c-40 -40 -19 -100 56 -165 l38 -33 27 19 c35 25 86 83 93
107 10 29 -10 71 -39 84 -22 10 -30 8 -55 -11 -22 -16 -30 -18 -30 -7 0 31
-61 35 -90 6z"/>
<path d="M613 5129 c-16 -6 -23 -17 -23 -33 0 -27 54 -96 75 -96 16 0 75 66
75 85 0 42 -40 61 -68 33 -8 -8 -12 -8 -12 -1 0 16 -22 22 -47 12z"/>
<path d="M2437 5073 c-30 -35 -23 -78 22 -123 52 -51 57 -53 87 -34 44 29 83
91 78 122 -8 43 -44 58 -82 35 -19 -12 -25 -12 -38 2 -20 20 -47 19 -67 -2z"/>
<path d="M3304 5052 c-12 -9 -26 -26 -32 -37 -14 -28 8 -89 50 -133 18 -19 28
-32 21 -28 -16 9 -63 -11 -83 -35 -17 -19 -18 -19 -50 11 -36 33 -55 36 -104
16 -67 -28 -81 -111 -31 -186 34 -52 135 -150 153 -150 13 0 100 68 134 104
51 56 70 102 63 157 -4 27 -3 49 2 49 12 0 86 70 110 105 26 38 24 88 -5 117
-25 26 -73 28 -97 5 -21 -21 -21 -21 -45 3 -24 24 -58 25 -86 2z"/>
<path d="M5303 5040 c-12 -5 -29 -22 -37 -38 -14 -27 -13 -32 5 -70 23 -45 90
-112 114 -112 18 0 78 52 107 92 35 49 22 122 -23 128 -29 4 -48 -1 -64 -16
-15 -15 -18 -15 -36 5 -21 23 -32 25 -66 11z"/>
<path d="M3690 4992 c-46 -37 -10 -129 68 -174 l30 -18 51 50 c28 27 51 56 52
62 0 7 2 21 4 32 4 21 -36 66 -59 66 -8 0 -21 -7 -30 -15 -8 -8 -17 -15 -21
-15 -4 0 -13 7 -21 15 -21 20 -47 19 -74 -3z"/>
<path d="M4990 4982 c-34 -5 -48 -18 -55 -51 -8 -36 16 -80 71 -131 50 -46 46
-47 116 19 45 42 63 87 49 124 -13 34 -55 46 -92 25 -24 -14 -28 -14 -45 1
-11 10 -30 15 -44 13z"/>
<path d="M4320 4943 c-61 -18 -87 -58 -75 -120 5 -27 24 -54 76 -106 38 -38
73 -67 79 -65 18 6 94 70 119 101 13 16 30 45 37 65 32 93 -68 160 -136 92
-18 -18 -21 -18 -26 -5 -8 20 -54 44 -74 38z"/>
<path d="M339 4910 c-16 -15 -29 -38 -29 -50 0 -57 113 -180 148 -161 38 20
112 103 120 133 10 37 -6 81 -33 92 -32 12 -65 6 -77 -14 -12 -19 -13 -19 -34
1 -34 32 -63 32 -95 -1z"/>
<path d="M794 4895 c-13 -13 -24 -29 -24 -35 0 -22 29 -66 65 -98 l36 -34 35
27 c63 48 85 103 56 138 -18 21 -55 22 -72 2 -11 -13 -14 -13 -24 -2 -21 27
-46 28 -72 2z"/>
<path d="M2635 4902 c-36 -12 -65 -38 -76 -70 -9 -27 -14 -30 -29 -22 -30 16
-57 12 -86 -14 l-28 -23 -19 23 c-37 48 -115 24 -137 -40 -9 -30 -8 -41 10
-76 26 -51 116 -140 141 -140 31 0 130 94 150 143 l12 28 57 -60 c80 -82 102
-96 132 -80 39 20 147 133 162 170 21 49 11 98 -25 132 -43 40 -101 34 -139
-15 -16 -19 -16 -19 -29 6 -8 14 -27 30 -44 36 -16 5 -30 10 -31 9 -1 -1 -10
-4 -21 -7z"/>
<path d="M4631 4849 c-33 -36 -19 -74 52 -141 22 -21 33 -25 46 -18 55 32 101
98 94 134 -3 13 -16 30 -29 37 -21 11 -29 10 -54 -5 -27 -15 -31 -16 -36 -2
-9 23 -50 20 -73 -5z"/>
<path d="M5145 4780 c-93 -61 -69 -160 68 -286 44 -40 63 -64 56 -71 -15 -15
-18 -86 -4 -113 40 -77 163 -194 193 -183 32 12 136 108 164 152 47 74 33 152
-32 186 -40 21 -97 5 -119 -33 -9 -15 -12 -14 -34 10 -13 16 -38 31 -56 34
l-31 6 41 42 c87 86 109 144 80 207 -32 68 -102 80 -158 27 l-23 -21 -24 26
c-14 15 -29 28 -33 28 -48 7 -64 5 -88 -11z"/>
<path d="M1099 4783 c-25 -6 -42 -48 -36 -88 3 -19 2 -33 -2 -31 -12 8 -82
-31 -98 -54 -14 -20 -15 -20 -37 12 -31 47 -85 59 -137 31 -36 -20 -39 -20
-54 -3 -24 27 -52 30 -79 9 -23 -18 -24 -18 -46 1 -13 11 -24 20 -25 20 -1 0
-16 -5 -33 -11 -32 -11 -51 -46 -44 -86 4 -28 94 -123 116 -123 8 0 31 14 50
30 l34 31 25 -53 c37 -80 183 -222 216 -211 18 6 114 83 119 95 7 15 17 8 30
-20 13 -31 108 -132 123 -132 5 0 6 -17 3 -39 -4 -27 -1 -50 12 -77 20 -44
147 -174 170 -174 8 0 32 11 52 25 l37 25 18 -39 c10 -21 43 -66 73 -99 34
-38 48 -59 37 -57 -22 3 -70 -20 -76 -37 -3 -9 -13 -4 -32 15 -15 15 -36 27
-46 27 -52 0 -101 -46 -101 -94 0 -22 -4 -23 -37 -19 -30 4 -43 0 -68 -21 -30
-25 -32 -26 -45 -8 -44 63 -133 38 -157 -45 -13 -45 16 -101 90 -173 34 -33
66 -60 71 -60 53 0 187 147 188 207 1 14 7 11 31 -16 30 -32 30 -33 11 -47
-34 -23 -54 -80 -46 -127 10 -62 57 -125 170 -228 33 -30 74 -46 74 -30 0 6 4
11 10 11 10 0 38 22 97 77 l35 32 56 -55 c31 -30 63 -54 73 -54 36 0 164 124
177 171 l7 28 40 -34 c22 -19 44 -35 49 -35 5 0 31 22 59 50 45 45 49 53 43
82 -10 53 -37 65 -85 39 -19 -10 -25 -11 -31 0 -12 19 -52 18 -74 -3 -18 -17
-21 -17 -38 -1 -29 26 -85 20 -118 -12 -25 -24 -28 -24 -34 -9 -5 13 2 25 26
43 121 95 173 164 172 234 0 38 -6 53 -29 77 -16 17 -35 30 -42 30 -20 0 -16
6 27 47 44 42 59 87 38 116 -18 24 -49 28 -70 10 -15 -14 -19 -14 -33 1 -9 9
-23 16 -31 16 -9 0 -14 11 -14 33 0 43 -30 90 -70 109 -43 21 -97 8 -132 -31
l-27 -30 -16 25 c-15 24 -15 26 14 50 33 27 71 84 75 112 5 27 -14 59 -41 71
-34 15 -46 14 -70 -8 -21 -20 -21 -20 -39 0 -25 27 -70 24 -99 -7 -14 -15 -22
-30 -19 -35 3 -5 -8 -9 -23 -9 -29 0 -72 -23 -86 -47 -6 -9 -15 -5 -35 18 -15
16 -37 31 -49 32 -13 1 -23 2 -23 4 0 1 12 15 26 30 14 15 30 38 35 51 34 89
-42 164 -113 112 l-30 -22 -22 21 c-12 12 -27 21 -33 21 -7 0 -10 20 -10 50 2
41 6 51 26 62 44 24 101 98 101 132 0 61 -49 91 -92 57 -24 -20 -25 -20 -41 0
-16 18 -34 22 -68 12z m884 -998 c-8 -5 -28 -20 -43 -33 l-28 -22 -31 31 c-33
33 -33 37 12 85 l29 31 39 -41 c33 -35 36 -42 22 -51z m-273 -85 c0 -5 -2 -10
-4 -10 -3 0 -8 5 -11 10 -3 6 -1 10 4 10 6 0 11 -4 11 -10z m4 -74 c3 -14 21
-44 40 -69 32 -42 33 -44 10 -39 -33 6 -80 -15 -105 -47 -17 -21 -22 -23 -29
-11 -5 8 -15 24 -23 34 -13 17 -11 22 20 49 33 29 69 84 65 100 -1 4 2 7 7 7
5 0 12 -11 15 -24z"/>
<path d="M3479 4741 c-16 -16 -29 -37 -29 -47 0 -37 44 -106 96 -150 l55 -47
42 34 c104 83 135 162 82 214 -13 14 -31 25 -40 25 -20 0 -57 -19 -67 -34 -4
-7 -15 -3 -31 12 -33 31 -72 28 -108 -7z"/>
<path d="M3956 4751 c-9 -10 -16 -25 -16 -34 0 -20 57 -87 74 -87 19 0 76 60
76 80 0 46 -38 68 -68 38 -8 -8 -12 -8 -12 -1 0 19 -38 22 -54 4z"/>
<path d="M4824 4727 c-19 -22 -23 -47 -13 -75 12 -31 77 -102 94 -102 19 0 85
61 102 93 30 60 -19 118 -71 84 -21 -14 -26 -14 -36 -2 -15 18 -61 19 -76 2z"/>
<path d="M2003 4672 c-21 -13 -40 -61 -35 -88 5 -29 104 -134 126 -134 21 0
101 75 119 111 16 34 14 76 -6 96 -21 21 -65 23 -88 4 -21 -17 -23 -17 -41 1
-19 19 -54 23 -75 10z"/>
<path d="M4095 4597 c-28 -28 -32 -39 -30 -75 2 -27 13 -58 31 -83 35 -51 123
-129 145 -129 13 0 17 -9 17 -41 1 -47 32 -102 97 -166 37 -37 40 -43 24 -48
-10 -4 -28 -18 -40 -33 -19 -24 -21 -25 -30 -9 -22 39 -53 59 -89 55 l-35 -3
33 50 c29 42 33 56 29 90 -11 78 -86 107 -142 55 -20 -19 -20 -19 -44 6 -58
61 -166 -9 -142 -93 13 -43 48 -93 96 -134 l43 -36 -34 -33 c-19 -18 -34 -27
-34 -21 0 26 -52 61 -91 61 -42 0 -94 -37 -110 -78 -8 -20 -14 -23 -37 -19
-19 4 -36 -2 -58 -19 -31 -23 -32 -23 -45 -4 -8 11 -30 22 -50 25 -29 5 -40 1
-64 -24 l-30 -29 -12 30 c-13 30 -12 31 51 93 42 41 66 75 71 96 l7 32 27 -29
c14 -16 36 -37 48 -47 20 -18 22 -17 58 15 65 57 78 120 27 139 -19 7 -29 6
-43 -7 -18 -16 -20 -16 -37 -1 -24 22 -38 21 -62 -3 -19 -19 -20 -19 -30 0
-27 50 -100 58 -140 15 l-21 -22 -29 28 c-32 32 -57 36 -100 14 -27 -14 -29
-13 -35 5 -9 28 -53 60 -83 60 -14 0 -40 -11 -59 -26 -18 -14 -33 -20 -33 -15
0 18 -52 45 -82 43 -51 -4 -90 -56 -83 -112 9 -65 135 -203 176 -193 11 3 48
32 82 64 33 32 62 57 62 56 41 -73 60 -100 89 -125 l34 -30 -28 -26 c-28 -24
-30 -25 -39 -7 -6 10 -24 24 -42 31 -27 12 -36 11 -64 -5 -94 -50 -61 -169 75
-273 l42 -33 47 38 c57 47 87 79 107 117 l16 30 14 -32 c7 -18 40 -60 73 -93
60 -59 60 -60 89 -45 34 17 120 104 128 128 4 14 18 5 67 -46 34 -34 74 -71
89 -80 24 -16 29 -16 55 -3 15 9 59 45 96 81 65 63 87 77 87 57 0 -5 23 -28
50 -51 65 -55 80 -51 180 48 l78 77 36 -29 35 -29 33 23 c43 30 77 72 88 110
16 57 -47 101 -96 66 -17 -13 -21 -12 -38 2 -10 9 -27 17 -38 17 -12 0 -26 7
-31 17 -9 13 0 26 47 69 83 76 109 120 103 177 -3 35 -11 52 -36 74 -41 37
-77 36 -123 -2 -37 -30 -37 -30 -48 -9 -13 24 -75 53 -92 43 -6 -4 8 17 31 45
45 58 53 100 27 150 -27 52 -100 61 -139 17 l-21 -24 -27 29 c-38 41 -81 39
-124 -4z"/>
<path d="M5522 4596 c-12 -27 10 -72 49 -99 21 -15 24 -14 55 11 39 33 53 77
30 100 -12 13 -20 13 -40 4 -16 -7 -28 -8 -31 -2 -12 19 -52 10 -63 -14z"/>
<path d="M192 4560 c-27 -11 -45 -55 -37 -88 8 -34 94 -122 118 -122 25 0 113
87 122 121 16 64 -37 111 -90 80 -29 -17 -31 -17 -49 1 -22 20 -30 21 -64 8z"/>
<path d="M3748 4530 c-53 -41 -38 -104 43 -181 28 -27 55 -49 59 -49 4 0 31
21 59 46 85 76 101 129 56 179 -21 21 -31 26 -53 20 -15 -3 -33 -13 -39 -22
-12 -15 -15 -15 -36 5 -29 27 -57 28 -89 2z"/>
<path d="M2555 4520 c-62 -24 -75 -96 -29 -158 32 -43 105 -112 118 -112 10 0
70 44 96 70 66 66 80 134 38 177 -32 31 -72 33 -101 4 l-21 -21 -21 20 c-26
24 -52 31 -80 20z"/>
<path d="M4511 4514 c-11 -8 -21 -23 -21 -32 0 -23 57 -92 76 -92 9 0 30 16
49 36 31 33 37 56 20 84 -9 14 -48 13 -63 -2 -8 -8 -12 -8 -12 -1 0 19 -27 22
-49 7z"/>
<path d="M2236 4484 c-26 -25 -19 -60 23 -105 l38 -42 34 21 c58 36 80 95 47
128 -14 15 -58 8 -58 -8 0 -6 -7 -4 -16 3 -24 19 -51 21 -68 3z"/>
<path d="M4835 4476 c-19 -29 -12 -46 33 -89 l29 -28 37 34 c38 37 47 75 22
96 -11 10 -20 10 -36 1 -16 -9 -25 -9 -33 -1 -17 17 -35 13 -52 -13z"/>
<path d="M2891 4469 c-16 -17 -18 -26 -10 -48 12 -30 68 -91 84 -91 16 0 82
71 89 96 4 14 0 30 -13 45 -17 21 -21 22 -46 11 -20 -9 -31 -10 -39 -2 -16 16
-44 12 -65 -11z"/>
<path d="M3311 4419 c-12 -11 -21 -27 -21 -35 0 -32 45 -93 87 -117 14 -9 79
46 98 83 26 50 -29 104 -71 70 -9 -8 -18 -9 -26 -3 -27 20 -46 21 -67 2z"/>
<path d="M5052 4313 c-7 -3 -18 -16 -23 -30 -12 -32 10 -78 55 -115 l33 -27
30 22 c47 33 75 80 67 112 -8 34 -41 48 -70 30 -14 -9 -25 -10 -31 -4 -12 12
-44 18 -61 12z"/>
<path d="M2230 4298 c-33 -12 -60 -47 -60 -79 0 -24 34 -86 63 -113 79 -74 84
-75 153 -9 80 75 97 132 54 178 -29 31 -72 33 -101 4 -22 -22 -22 -22 -38 -2
-21 27 -41 32 -71 21z"/>
<path d="M4720 4303 c-40 -16 -61 -64 -48 -111 10 -39 115 -152 140 -152 10 0
30 12 45 26 15 14 35 31 44 38 30 22 59 72 64 108 9 73 -67 121 -118 74 l-26
-24 -22 24 c-22 23 -48 29 -79 17z"/>
<path d="M1925 4265 c-17 -16 -24 -32 -21 -47 3 -13 5 -26 5 -30 2 -12 52 -68
81 -88 l28 -20 51 49 c28 27 51 53 52 58 0 4 2 19 5 32 9 47 -50 82 -88 52
-20 -17 -22 -17 -40 1 -24 24 -44 23 -73 -7z"/>
<path d="M497 4262 c-24 -27 -21 -47 14 -87 38 -43 60 -44 92 -5 32 38 42 67
27 84 -14 18 -50 27 -50 14 0 -10 -17 -8 -51 6 -9 4 -22 -1 -32 -12z"/>
<path d="M76 4211 c-32 -19 -46 -65 -33 -106 11 -31 112 -135 132 -135 18 0
101 76 125 115 52 84 -34 181 -101 114 -21 -21 -21 -21 -35 -1 -18 27 -57 32
-88 13z"/>
<path d="M855 4200 c-25 -26 -27 -34 -22 -78 5 -47 5 -49 -17 -45 -14 3 -34
-5 -54 -22 l-32 -26 -23 27 c-27 31 -71 35 -110 9 -17 -11 -27 -13 -32 -6 -13
21 -81 12 -109 -14 l-27 -25 -23 27 c-44 51 -121 30 -151 -41 -23 -54 11 -123
102 -205 31 -28 61 -51 68 -51 16 0 78 50 126 100 l36 38 47 -49 c26 -27 58
-56 71 -65 23 -15 26 -15 67 17 87 68 138 139 138 190 0 22 1 22 33 -9 18 -18
40 -32 49 -32 9 0 44 25 76 55 96 88 115 153 63 206 -36 35 -70 37 -107 5
l-28 -23 -19 23 c-28 36 -85 33 -122 -6z"/>
<path d="M2655 4210 c-31 -12 -48 -38 -50 -73 -3 -41 7 -60 62 -119 l45 -47
-23 -29 -24 -28 -37 39 c-34 37 -41 39 -78 34 -51 -7 -85 -29 -106 -69 -38
-73 -2 -160 107 -263 95 -89 99 -90 145 -56 49 36 122 107 152 146 l22 30 18
-21 c9 -11 29 -28 43 -37 24 -16 26 -16 62 19 45 44 53 68 33 99 -16 24 -57
27 -65 4 -2 -6 -10 -4 -22 7 -10 9 -24 14 -32 11 -9 -3 -17 9 -26 37 -7 23
-21 49 -33 57 -11 8 -27 19 -35 24 -12 9 -10 16 15 42 62 64 78 110 53 156
-25 47 -77 52 -117 12 -14 -14 -17 -13 -32 4 -21 24 -51 32 -77 21z"/>
<path d="M5600 4190 c-25 -25 -26 -62 -3 -98 19 -30 92 -102 104 -102 15 0 97
76 113 105 9 17 15 41 13 53 -8 56 -70 82 -104 42 -17 -19 -17 -19 -30 0 -18
26 -67 26 -93 0z"/>
<path d="M5037 4049 c-48 -27 -38 -82 26 -140 34 -31 44 -29 91 18 34 33 44
58 38 90 -5 28 -46 41 -75 24 -11 -8 -22 -9 -26 -4 -10 16 -36 21 -54 12z"/>
<path d="M5320 4018 c-34 -37 -22 -87 36 -143 57 -56 65 -58 104 -22 80 72
101 129 60 164 -26 23 -51 25 -78 7 -21 -14 -25 -14 -41 0 -25 22 -57 20 -81
-6z"/>
<path d="M2264 3932 c-6 -4 -16 -17 -22 -28 -10 -18 -8 -27 10 -50 25 -33 49
-53 62 -54 19 0 76 69 76 94 0 30 -28 49 -53 35 -11 -6 -24 -6 -36 1 -23 12
-23 12 -37 2z"/>
<path d="M5552 3890 c-69 -50 -71 -141 -6 -227 36 -48 130 -137 160 -153 21
-12 28 -10 63 14 94 65 185 176 194 236 2 14 0 41 -5 60 -26 96 -130 123 -197
50 l-25 -26 -31 34 c-43 48 -98 52 -153 12z"/>
<path d="M1170 3873 c-21 -7 -40 -33 -40 -55 0 -18 66 -98 81 -98 4 0 24 14
43 30 38 34 55 82 36 105 -15 18 -57 20 -63 3 -3 -10 -9 -9 -23 3 -10 9 -26
14 -34 12z"/>
<path d="M4736 3861 c-34 -37 -23 -84 32 -139 48 -49 61 -56 76 -43 11 9 15 5
20 -24 4 -20 16 -51 27 -69 l20 -34 -33 -32 c-18 -18 -34 -28 -35 -23 -8 23
-30 43 -64 57 -33 14 -39 13 -75 -4 -42 -21 -74 -64 -74 -99 0 -16 -6 -21 -26
-21 -31 0 -61 -15 -97 -48 -26 -25 -28 -25 -33 -7 -8 31 -50 56 -94 57 -48 0
-97 -32 -116 -78 -13 -32 -15 -32 -41 -19 -27 14 -59 6 -74 -18 -4 -5 -19 0
-36 12 -37 28 -73 21 -96 -18 -24 -41 -14 -77 42 -140 l22 -25 -33 -13 c-43
-18 -70 -55 -75 -107 -7 -55 19 -105 93 -185 30 -33 53 -65 49 -71 -4 -7 -19
3 -39 26 -29 34 -37 37 -83 37 -44 0 -50 3 -46 18 3 12 -7 30 -26 49 -33 33
-57 34 -93 3 -15 -13 -20 -12 -46 7 -32 24 -70 20 -96 -9 -38 -42 -17 -112 55
-178 57 -53 63 -55 92 -33 32 25 35 25 35 -5 0 -41 63 -134 135 -199 37 -33
76 -64 85 -67 10 -4 30 4 50 19 l34 26 19 -25 c20 -26 25 -44 10 -35 -13 9
-52 -8 -80 -35 -21 -20 -25 -20 -32 -6 -20 34 -42 47 -81 47 -34 0 -46 -6 -74
-36 -19 -19 -34 -42 -34 -50 0 -8 -9 -14 -20 -14 -10 0 -34 -13 -53 -30 l-34
-29 -21 28 c-11 16 -34 31 -51 34 -26 6 -31 11 -31 37 0 16 2 30 4 30 3 0 22
-16 43 -35 21 -19 45 -35 53 -35 21 0 114 89 131 125 24 50 12 98 -30 119 -24
13 -31 12 -59 -1 -18 -9 -32 -21 -32 -27 0 -6 -6 -4 -13 5 -13 17 -50 39 -66
39 -22 0 -71 -53 -71 -77 0 -21 -3 -23 -22 -17 -40 13 -71 5 -103 -26 l-31
-30 -13 24 c-22 41 -60 50 -121 31 -27 -8 -63 -71 -62 -107 1 -44 43 -108 117
-176 36 -34 69 -62 74 -62 4 0 27 13 49 30 l42 30 15 -36 c8 -20 15 -38 15
-40 0 -17 138 -152 163 -160 18 -6 17 -7 -3 -29 l-23 -24 -17 21 c-39 49 -139
3 -127 -58 3 -19 0 -23 -18 -22 -24 2 -85 -37 -85 -55 0 -6 -13 3 -29 21 -17
17 -34 32 -38 33 -4 0 -17 2 -27 4 -29 6 -80 -19 -99 -48 -24 -36 -27 -67 -12
-112 13 -37 13 -40 -16 -69 -16 -16 -29 -25 -29 -19 0 15 -32 47 -60 59 -31
13 -80 1 -105 -26 -10 -11 -28 -20 -41 -20 -13 0 -40 -15 -60 -32 -27 -24 -39
-29 -42 -19 -2 7 -15 22 -28 33 -21 19 -22 22 -7 44 29 45 14 130 -29 158 -48
31 -88 26 -134 -16 -21 -19 -22 -19 -53 13 -29 28 -36 31 -74 26 -67 -9 -102
-57 -99 -136 3 -64 164 -236 210 -224 13 3 23 -6 35 -32 10 -20 41 -61 69 -91
29 -30 45 -54 36 -54 -8 0 -24 -9 -36 -21 l-23 -20 -31 26 c-80 67 -180 -36
-128 -133 23 -44 40 -63 100 -117 30 -26 46 -49 47 -68 4 -41 27 -79 76 -126
78 -74 83 -76 120 -48 123 93 161 184 102 242 -31 32 -74 32 -107 2 l-25 -23
-19 21 c-11 12 -26 24 -33 26 -10 4 -4 18 23 53 20 26 36 51 37 54 0 4 2 15 4
25 2 10 0 31 -5 47 -7 24 -5 31 14 44 13 8 49 39 80 69 l56 53 48 -44 c71 -66
86 -69 137 -27 24 19 47 35 52 35 5 0 17 -14 27 -30 20 -35 105 -123 142 -146
23 -16 26 -15 65 11 61 43 147 141 158 180 6 22 6 48 0 68 -5 17 -9 33 -9 35
0 2 21 -15 47 -37 47 -40 47 -40 76 -23 33 19 101 87 128 129 11 15 19 41 19
56 0 82 -81 131 -135 81 -27 -25 -45 -31 -45 -14 0 6 -13 18 -30 28 l-30 19
31 22 c43 32 89 100 89 131 0 34 -35 80 -61 80 -28 0 -23 12 16 39 35 24 98
88 127 130 l17 24 47 -42 c26 -22 53 -41 60 -41 20 0 132 99 167 148 19 26 33
60 37 88 l5 45 23 -21 23 -22 37 25 c20 13 55 40 77 60 41 37 55 44 55 27 0
-5 20 -30 45 -55 52 -51 59 -51 120 12 46 47 53 77 28 111 -22 29 -56 32 -81
7 -11 -10 -18 -9 -36 9 -18 17 -22 29 -18 58 6 51 -3 79 -34 113 l-25 28 34
36 c49 51 66 89 56 126 -16 55 -78 74 -114 34 l-19 -20 -16 21 c-10 13 -28 22
-47 22 l-31 1 20 39 c13 25 19 51 16 77 l-3 38 32 -25 33 -25 39 28 c59 40
155 140 177 183 10 20 20 39 21 41 1 2 26 -17 55 -43 29 -25 62 -46 74 -46 20
0 83 48 133 100 l23 25 16 -25 c9 -14 51 -60 94 -102 43 -42 78 -80 78 -84 0
-4 -8 0 -17 8 -31 27 -61 31 -93 11 -16 -9 -30 -22 -30 -27 0 -5 -11 1 -25 14
-85 80 -183 -28 -118 -130 21 -33 114 -120 128 -120 15 0 54 28 88 62 15 15
31 28 35 28 4 0 16 -16 27 -36 18 -34 168 -184 184 -184 18 0 101 64 152 117
80 84 108 159 79 212 -7 14 0 27 36 62 90 87 111 152 73 219 -14 24 -33 43
-47 47 l-23 6 29 31 c42 43 46 78 11 96 -15 8 -24 8 -34 0 -10 -8 -19 -8 -34
0 -29 15 -61 -3 -61 -35 0 -13 14 -40 30 -59 29 -32 29 -35 11 -41 -10 -3 -30
-17 -43 -30 l-25 -25 -13 24 c-6 13 -23 29 -36 35 -13 6 -25 15 -25 21 -4 29
-30 80 -41 80 -5 0 14 21 41 48 48 47 79 95 75 120 -1 6 -2 18 -3 25 -2 25
-42 57 -70 57 -15 0 -38 -9 -50 -19 -22 -19 -22 -19 -48 5 -14 13 -29 24 -33
24 -4 0 -10 9 -13 19 -7 27 -65 61 -103 61 -20 0 -43 -11 -69 -33 l-39 -33
-37 37 c-32 32 -42 36 -72 32 -30 -4 -36 -1 -43 19 -4 13 -14 28 -23 35 -19
14 -61 17 -61 4 0 -17 -29 -20 -44 -6 -20 21 -60 19 -80 -4z m559 -365 c-10
-6 -33 -24 -51 -39 -32 -27 -33 -27 -39 -6 -5 16 2 30 31 60 l38 39 20 -22
c19 -21 19 -22 1 -32z m-1025 -269 c0 -7 14 -29 31 -50 l30 -37 -28 0 c-19 0
-44 -12 -69 -34 l-41 -35 -16 29 -17 28 45 43 c25 24 45 49 45 56 0 7 5 13 10
13 6 0 10 -6 10 -13z m1100 -79 c13 -18 29 -37 37 -41 10 -6 10 -13 -3 -32
-20 -31 -27 -31 -39 -2 -6 12 -27 31 -49 41 -34 17 -37 20 -20 29 11 6 23 16
27 24 12 20 21 16 47 -19z m-1034 -314 c-9 -23 17 -77 56 -115 l34 -34 -33
-33 -32 -32 -13 23 c-6 12 -12 38 -13 58 -1 20 -11 52 -22 72 -21 35 -21 35
-2 56 23 25 33 27 25 5z m-631 -1161 c-34 -30 -39 -85 -13 -137 19 -37 19 -38
1 -32 -50 20 -97 8 -126 -34 -14 -20 -14 -19 -26 6 -11 24 -8 30 59 96 46 46
73 82 81 108 10 34 14 37 31 27 18 -12 18 -13 -7 -34z"/>
<path d="M833 3780 c-12 -5 -28 -22 -36 -37 -24 -48 3 -106 79 -168 l44 -36
45 37 c92 75 114 145 62 190 -23 20 -31 22 -57 13 -16 -6 -30 -15 -30 -20 0
-14 -21 -11 -34 5 -15 19 -47 26 -73 16z"/>
<path d="M111 3724 c-32 -23 -27 -63 14 -106 18 -21 41 -38 49 -38 18 0 69 46
85 77 24 47 -31 97 -67 61 -9 -9 -15 -10 -20 -2 -13 19 -39 23 -61 8z"/>
<path d="M2171 3714 c-19 -24 -19 -28 -5 -56 17 -33 69 -88 83 -88 18 0 82 69
90 98 7 24 5 34 -10 51 -23 25 -29 26 -55 7 -14 -11 -22 -12 -32 -3 -25 20
-50 17 -71 -9z"/>
<path d="M2793 3658 c-39 -10 -83 -69 -83 -111 0 -31 20 -76 57 -124 23 -32
24 -33 5 -53 -18 -20 -18 -20 -40 10 -45 60 -139 45 -179 -28 -11 -20 -18 -49
-17 -64 2 -24 -1 -28 -21 -28 -13 0 -37 -11 -53 -25 -29 -24 -31 -25 -44 -7
-21 30 -48 41 -81 31 -66 -19 -91 -76 -63 -143 18 -43 129 -156 153 -156 14 0
14 -2 -2 -20 l-19 -21 -15 25 c-42 70 -145 56 -187 -26 -39 -74 13 -173 151
-285 l39 -32 -25 -23 -24 -23 -20 23 c-59 66 -169 -4 -144 -92 13 -46 92 -138
146 -169 18 -11 54 13 114 74 56 57 75 105 60 152 -11 32 -62 73 -75 60 -3 -3
-6 -2 -6 3 0 5 14 17 30 26 29 16 30 16 30 -3 0 -49 78 -152 160 -211 39 -28
50 -27 93 11 91 78 147 150 150 192 1 21 -6 25 66 -39 31 -28 37 -27 75 2 79
61 139 143 132 180 -10 45 -21 65 -41 76 -36 19 -73 15 -101 -11 l-25 -24 -17
22 c-48 62 -152 15 -152 -67 0 -16 -4 -18 -23 -11 -19 7 -34 4 -65 -15 -23
-14 -42 -31 -42 -37 0 -7 -12 3 -26 21 -14 17 -31 32 -37 32 -32 1 -39 17 -22
50 l17 32 27 -26 c37 -35 55 -33 101 13 57 56 65 117 20 141 -20 11 -70 -5
-70 -23 0 -5 -9 1 -19 14 -18 22 -22 23 -54 11 -31 -11 -39 -10 -69 8 -27 16
-41 18 -66 11 -31 -9 -30 -7 21 39 29 26 62 66 72 87 11 21 21 40 22 42 1 2
17 -13 35 -33 18 -19 48 -47 67 -60 31 -23 36 -24 61 -11 14 7 32 21 39 29 19
23 25 20 54 -23 26 -39 86 -99 127 -128 18 -13 24 -13 48 3 50 32 124 108 143
146 11 21 21 38 24 38 2 0 19 -9 38 -20 l33 -20 34 28 c86 69 138 137 142 185
4 52 -48 118 -89 111 -7 -1 -19 -2 -27 -3 -8 0 -24 -12 -37 -25 l-23 -24 -28
28 -28 28 55 56 c31 31 56 65 57 78 0 13 2 30 3 38 6 67 -79 96 -122 42 -11
-14 -15 -13 -32 7 -18 21 -73 32 -87 18 -4 -4 -16 0 -28 8 -38 27 -96 13 -133
-33 -11 -13 -15 -12 -33 10 -26 34 -66 47 -107 36z m346 -232 c32 -33 32 -33
9 -39 -35 -9 -61 -61 -55 -107 4 -35 2 -40 -24 -51 -17 -6 -35 -21 -41 -32
-10 -20 -11 -20 -21 -1 -6 10 -18 25 -28 31 -12 9 -16 25 -15 53 1 36 9 49 66
109 36 38 67 69 71 70 3 0 20 -14 38 -33z"/>
<path d="M477 3632 c-25 -27 -21 -66 11 -104 32 -39 64 -67 76 -68 5 0 31 22
57 49 54 53 64 94 31 124 -23 21 -41 21 -69 2 -18 -13 -22 -13 -33 0 -17 21
-53 19 -73 -3z"/>
<path d="M3424 3615 c-41 -17 -73 -69 -67 -109 6 -44 43 -103 97 -157 65 -64
89 -76 121 -59 35 19 134 119 152 154 l15 30 15 -29 c16 -29 82 -95 96 -95 19
0 107 100 107 122 0 54 -60 89 -90 53 -10 -12 -14 -12 -32 5 -16 15 -25 16
-49 8 -16 -5 -29 -15 -29 -21 0 -17 -10 -1 -15 23 -7 37 -55 80 -87 80 -35 0
-83 -24 -92 -45 -4 -13 -11 -10 -34 16 -32 35 -64 43 -108 24z"/>
<path d="M4463 3610 c-12 -10 -20 -27 -18 -37 2 -10 4 -23 4 -30 1 -16 79 -93
94 -93 18 1 64 44 86 80 15 26 17 38 9 61 -5 16 -14 30 -19 30 -5 1 -15 2 -21
4 -7 1 -23 -4 -35 -11 -18 -11 -23 -11 -33 1 -17 21 -42 19 -67 -5z"/>
<path d="M4141 3583 c-34 -23 -27 -66 17 -113 22 -22 45 -40 53 -40 17 0 83
67 93 93 6 19 -9 57 -27 69 -6 3 -23 0 -38 -8 -15 -8 -30 -10 -33 -5 -11 16
-45 19 -65 4z"/>
<path d="M2448 3474 c-13 -13 -14 -22 -7 -43 12 -29 36 -59 60 -71 21 -12 77
39 85 78 8 38 -17 59 -51 44 -15 -7 -26 -8 -30 -2 -9 15 -39 12 -57 -6z"/>
<path d="M211 3365 c-16 -21 -18 -31 -10 -54 11 -32 75 -101 94 -101 18 0 89
76 96 102 13 49 -34 89 -74 63 -22 -14 -26 -14 -37 0 -19 22 -46 18 -69 -10z"/>
<path d="M523 3370 c-78 -47 -44 -157 76 -244 l34 -25 31 22 c117 83 157 177
100 234 -21 21 -32 24 -60 20 -19 -3 -41 -13 -50 -22 -15 -15 -18 -15 -38 3
-33 31 -58 34 -93 12z"/>
<path d="M840 3370 c-23 -23 -25 -42 -9 -73 18 -35 71 -87 89 -87 22 0 93 73
101 104 14 51 -44 91 -85 57 -7 -6 -18 -4 -30 5 -27 19 -42 18 -66 -6z"/>
<path d="M1214 3235 c-15 -23 -15 -27 3 -58 l20 -32 -29 -2 c-16 0 -40 -11
-53 -23 l-25 -23 -26 26 c-35 35 -75 35 -114 0 -62 -55 -47 -123 46 -218 80
-81 84 -82 142 -36 27 22 58 50 69 64 l19 25 23 -43 c12 -23 52 -70 89 -105
l67 -64 -25 -25 -25 -26 -25 27 c-14 15 -37 29 -51 32 -52 8 -123 -61 -114
-110 2 -10 4 -24 4 -30 2 -24 66 -107 116 -150 l54 -45 32 16 c39 21 138 120
150 152 8 22 11 21 75 -43 91 -90 97 -91 165 -38 55 42 139 129 139 144 0 3
20 -13 45 -37 52 -49 60 -48 122 13 58 58 62 117 10 142 -24 12 -32 11 -53 -3
-23 -15 -27 -15 -43 -1 -10 9 -25 16 -35 16 -9 0 -34 18 -55 40 -21 23 -47 40
-59 40 -29 0 -28 8 8 40 42 38 71 105 58 140 -22 63 -81 83 -125 42 -22 -21
-28 -22 -37 -10 -31 42 -97 46 -124 7 -12 -17 -15 -18 -42 -4 -16 8 -39 15
-52 15 -25 0 -67 -25 -81 -47 -6 -9 -15 -4 -36 19 -23 26 -36 32 -66 31 -20
-1 -42 -6 -48 -12 -16 -16 -23 -14 -35 14 -8 17 -8 25 -1 25 18 0 77 72 74 89
-2 9 -4 19 -4 23 -2 17 -42 29 -56 18 -10 -8 -19 -8 -34 -1 -29 16 -39 14 -57
-14z m497 -359 c40 -40 52 -58 45 -69 -8 -12 -16 -7 -46 25 -32 33 -42 38 -69
33 l-30 -5 20 35 c12 19 22 35 23 35 2 0 27 -24 57 -54z m-191 -111 c0 -8 -7
-15 -16 -15 -14 0 -14 3 -4 15 7 8 14 15 16 15 2 0 4 -7 4 -15z"/>
<path d="M3740 3208 c-22 -24 -26 -58 -9 -91 19 -36 92 -107 111 -107 10 0 36
17 59 37 70 63 88 125 47 163 -27 25 -48 25 -80 1 -24 -19 -25 -19 -38 0 -19
26 -64 24 -90 -3z"/>
<path d="M3452 3127 c-26 -27 -27 -48 -8 -86 15 -28 80 -91 94 -91 13 0 86 75
102 104 12 24 12 31 -1 54 -17 32 -68 42 -88 18 -11 -13 -15 -12 -32 5 -25 25
-41 24 -67 -4z"/>
<path d="M346 3079 c-51 -60 -31 -125 66 -219 68 -66 70 -66 129 -18 77 64
110 109 116 160 10 87 -71 137 -135 83 l-29 -24 -23 24 c-35 37 -90 35 -124
-6z"/>
<path d="M4640 3050 c-26 -26 -20 -53 25 -99 l33 -33 36 33 c24 22 38 44 39
63 3 35 -24 56 -50 40 -14 -8 -23 -8 -40 3 -19 13 -24 12 -43 -7z"/>
<path d="M2025 3040 c-11 -12 -15 -28 -12 -42 7 -26 63 -88 81 -88 19 0 76 60
82 87 6 20 2 31 -16 45 -20 16 -25 17 -44 5 -18 -12 -23 -12 -34 -1 -18 19
-36 17 -57 -6z"/>
<path d="M726 2991 c-28 -31 -16 -74 33 -117 34 -31 40 -30 84 11 44 41 50 85
15 109 -18 13 -24 13 -41 1 -16 -11 -24 -12 -35 -3 -21 18 -39 18 -56 -1z"/>
<path d="M3185 2896 c-9 -13 -13 -31 -9 -42 9 -24 65 -84 78 -84 16 1 50 31
70 63 32 48 1 101 -45 77 -11 -6 -25 -7 -32 -3 -25 16 -47 12 -62 -11z"/>
<path d="M4723 2783 c-46 -41 -34 -102 33 -167 61 -59 66 -60 112 -20 80 68
106 130 72 172 -26 32 -61 37 -92 13 -25 -20 -26 -20 -43 -1 -22 25 -56 26
-82 3z"/>
<path d="M983 2747 c-33 -15 -44 -57 -25 -96 14 -29 87 -101 102 -101 14 0 91
74 105 99 15 29 10 67 -11 89 -17 17 -59 15 -74 -3 -11 -13 -15 -13 -29 -2
-24 21 -44 25 -68 14z"/>
<path d="M3423 2745 c-30 -21 -37 -59 -17 -96 17 -33 91 -109 106 -109 17 0
89 64 108 96 27 42 25 70 -5 100 -27 27 -54 26 -85 -2 -13 -11 -18 -10 -28 6
-14 24 -49 26 -79 5z"/>
<path d="M622 2668 c-10 -13 -15 -34 -13 -54 1 -16 62 -74 76 -74 14 0 58 47
74 77 16 31 -18 67 -51 54 -13 -4 -32 -5 -43 0 -28 11 -31 11 -43 -3z"/>
<path d="M5073 2672 c-6 -4 -16 -19 -22 -33 -8 -22 -5 -33 14 -60 12 -19 35
-45 50 -57 l27 -24 36 29 c49 40 74 88 60 119 -14 31 -43 39 -73 20 -20 -13
-25 -13 -35 -1 -13 16 -38 19 -57 7z"/>
<path d="M3129 2524 c-5 -15 -7 -35 -4 -46 7 -19 73 -88 85 -88 15 0 80 72 86
94 7 29 -11 66 -32 66 -8 0 -25 -5 -36 -11 -14 -8 -23 -8 -31 0 -21 21 -57 13
-68 -15z"/>
<path d="M1910 2420 c-23 -23 -25 -42 -9 -73 17 -31 62 -76 77 -77 20 0 73 42
88 72 19 36 18 50 -7 77 -20 21 -22 21 -46 6 -15 -10 -29 -13 -36 -7 -27 20
-48 21 -67 2z"/>
<path d="M4862 2419 c-36 -13 -47 -59 -25 -101 7 -16 11 -29 8 -29 -3 -1 -9
-3 -15 -4 -5 -1 -14 -3 -19 -4 -5 0 -22 -14 -37 -30 l-28 -30 -30 35 c-26 30
-38 35 -74 36 -79 1 -143 -77 -128 -156 4 -18 20 -54 37 -79 38 -58 164 -176
184 -173 47 7 186 143 216 212 19 41 22 105 6 120 -3 3 13 22 35 42 53 48 72
92 56 127 -15 33 -53 42 -88 21 -23 -13 -29 -13 -33 -2 -7 18 -38 25 -65 15z"/>
<path d="M858 2394 c-13 -13 -14 -23 -7 -43 13 -33 48 -71 67 -71 23 0 72 57
72 84 0 35 -31 53 -58 33 -8 -7 -17 -6 -24 1 -16 16 -31 15 -50 -4z"/>
<path d="M2503 2375 c-38 -16 -64 -53 -65 -92 -1 -47 29 -97 98 -162 59 -57
94 -75 94 -51 0 6 5 10 10 10 11 0 56 37 97 80 76 78 76 176 0 212 -36 17 -69
8 -100 -27 l-18 -20 -17 21 c-14 18 -53 45 -64 44 -2 -1 -17 -7 -35 -15z"/>
<path d="M2829 2369 c-5 -10 -9 -25 -9 -33 0 -19 58 -86 74 -86 17 0 72 61 79
88 7 30 -27 56 -55 41 -12 -7 -24 -7 -31 -1 -19 15 -47 10 -58 -9z"/>
<path d="M1247 2358 c-54 -42 -30 -115 61 -191 l34 -27 40 31 c60 48 92 101
84 142 -4 22 -15 39 -32 47 -22 12 -29 12 -60 -5 -34 -18 -36 -18 -45 -2 -12
20 -58 23 -82 5z"/>
<path d="M1580 2349 c-16 -29 -6 -59 32 -96 l33 -32 33 21 c39 24 63 67 55 96
-6 26 -36 37 -62 23 -13 -7 -22 -8 -26 -1 -11 18 -54 11 -65 -11z"/>
<path d="M2192 2214 c-32 -22 -27 -47 16 -93 l38 -41 41 41 c30 29 40 47 37
62 -6 31 -32 49 -55 36 -13 -6 -25 -6 -37 0 -14 7 -25 6 -40 -5z"/>
<path d="M1010 2178 c-22 -24 -26 -58 -9 -91 16 -29 89 -97 105 -97 20 0 103
86 110 115 17 66 -35 114 -85 77 -25 -17 -27 -17 -43 0 -24 24 -53 23 -78 -4z"/>
<path d="M3073 2182 c-23 -16 -34 -51 -22 -74 16 -31 70 -88 84 -88 16 0 83
69 91 93 14 45 -35 83 -76 57 -8 -5 -19 -5 -25 -1 -18 14 -41 19 -52 13z"/>
<path d="M4320 2163 c-49 -19 -38 -70 27 -126 20 -18 22 -17 56 12 42 38 55
76 32 101 -17 18 -55 16 -55 -3 0 -5 -8 -3 -18 6 -20 18 -20 18 -42 10z"/>
<path d="M2721 2093 c-60 -53 -41 -121 59 -217 71 -69 73 -68 161 18 76 75 94
132 58 183 -32 45 -90 50 -122 11 l-18 -21 -22 21 c-13 12 -37 24 -54 28 -24
5 -37 0 -62 -23z"/>
<path d="M1528 2090 c-14 -11 -28 -30 -30 -44 -9 -45 45 -125 114 -170 l27
-18 60 59 c33 32 63 71 67 87 10 40 -6 78 -39 94 -24 12 -32 11 -62 -6 -33
-20 -34 -20 -51 -1 -22 24 -55 24 -86 -1z"/>
<path d="M1846 2078 c-9 -12 -16 -28 -16 -35 0 -14 77 -103 89 -103 11 0 57
44 75 72 33 50 -4 105 -52 79 -11 -6 -24 -6 -33 0 -24 15 -47 10 -63 -13z"/>
<path d="M2128 1979 c-19 -18 -28 -35 -24 -45 3 -9 6 -21 6 -28 0 -16 75 -103
100 -116 14 -7 27 -1 64 31 58 51 79 91 71 130 -11 49 -64 65 -101 30 -20 -18
-21 -18 -32 -1 -20 32 -52 32 -84 -1z"/>
<path d="M3968 1987 c-35 -33 -44 -77 -23 -122 21 -44 123 -145 146 -145 18 0
65 35 113 85 73 76 70 171 -7 198 -21 8 -68 -9 -84 -30 -10 -13 -15 -12 -38
11 -33 33 -74 34 -107 3z"/>
<path d="M3353 1992 c-5 -4 -15 -17 -22 -29 -10 -19 -6 -27 28 -64 l40 -41 30
23 c16 13 35 37 42 53 11 26 10 31 -10 48 -17 13 -27 15 -36 8 -8 -7 -21 -7
-37 -1 -14 5 -29 6 -35 3z"/>
<path d="M4327 1952 c-33 -20 -59 -72 -53 -105 10 -57 88 -155 161 -203 23
-15 26 -14 61 13 51 38 124 115 124 129 0 7 4 14 9 16 13 4 17 66 7 101 -9 29
-51 57 -86 57 -26 0 -61 -18 -76 -39 -10 -13 -15 -11 -35 12 -29 33 -75 41
-112 19z"/>
<path d="M1253 1932 c-11 -7 -16 -25 -14 -52 2 -22 63 -90 81 -90 9 0 32 16
53 36 38 38 49 78 25 102 -15 15 -50 16 -65 1 -8 -8 -13 -8 -17 0 -8 12 -45
14 -63 3z"/>
<path d="M2417 1922 c-20 -22 -21 -45 -6 -75 14 -27 70 -77 85 -77 19 0 94 88
94 110 0 19 -32 60 -48 60 -4 0 -17 -7 -29 -15 -18 -13 -22 -13 -33 0 -17 20
-43 19 -63 -3z"/>
<path d="M1825 1871 c-34 -15 -67 -58 -70 -93 -6 -60 47 -140 142 -217 52 -41
62 -38 146 42 94 89 113 135 88 209 -9 27 -21 40 -49 51 -41 16 -72 9 -109
-25 l-22 -20 -23 26 c-25 28 -71 41 -103 27z"/>
<path d="M3002 1771 c-11 -31 1 -57 41 -93 27 -25 38 -23 74 12 40 39 46 64
23 93 -16 19 -21 20 -40 9 -14 -9 -26 -10 -40 -2 -31 17 -48 12 -58 -19z"/>
<path d="M1492 1714 c-33 -23 -28 -63 14 -112 19 -23 42 -42 50 -42 19 0 92
66 99 91 16 49 -30 90 -72 63 -18 -11 -23 -11 -33 1 -16 19 -30 19 -58 -1z"/>
<path d="M2228 1559 c-32 -18 -18 -74 26 -111 30 -24 42 -22 76 13 41 43 47
67 22 91 -16 17 -23 18 -42 8 -16 -9 -25 -9 -33 -1 -13 13 -27 14 -49 0z"/>
<path d="M4093 1559 c-43 -16 -27 -72 32 -121 20 -16 22 -16 46 5 14 12 32 32
41 45 31 45 -8 96 -50 66 -12 -8 -22 -11 -22 -6 0 15 -23 20 -47 11z"/>
<path d="M1729 1463 c-24 -6 -39 -44 -25 -67 15 -26 56 -66 69 -66 12 0 77 68
77 81 0 37 -49 66 -65 38 -5 -7 -12 -6 -23 4 -10 7 -24 12 -33 10z"/>
<path d="M1923 1434 c-39 -30 -51 -86 -30 -135 18 -43 97 -131 143 -159 33
-21 36 -21 60 -5 44 29 135 128 150 164 24 58 5 120 -44 144 -15 7 -33 12 -39
11 -7 -1 -19 -2 -27 -3 -8 0 -24 -12 -37 -26 -27 -27 -39 -31 -39 -12 -1 19
-42 44 -76 45 -18 0 -43 -9 -61 -24z"/>
<path d="M2442 1318 c-7 -7 -12 -22 -12 -35 0 -24 55 -93 74 -93 17 0 72 61
79 87 6 29 -21 54 -51 46 -12 -3 -22 -10 -22 -17 0 -6 -5 -3 -11 7 -12 20 -40
22 -57 5z"/>
<path d="M3782 1268 c-22 -22 -13 -56 25 -93 40 -38 39 -39 96 17 20 20 22 59
5 76 -16 16 -45 15 -51 0 -4 -10 -7 -10 -18 0 -17 15 -41 16 -57 0z"/>
<path d="M3108 1207 c-27 -21 -33 -63 -13 -95 23 -34 81 -92 94 -92 5 0 30 20
55 44 66 64 72 108 20 142 -16 11 -24 11 -48 -1 -25 -13 -30 -13 -49 0 -26 18
-37 18 -59 2z"/>
<path d="M2184 1107 c-25 -14 -33 -27 -29 -49 5 -26 40 -72 68 -91 22 -14 26
-14 55 10 45 34 64 75 53 107 -12 30 -38 37 -68 18 -13 -8 -23 -10 -23 -4 0
15 -35 21 -56 9z"/>
<path d="M3455 1090 c-39 -43 -10 -114 70 -176 l31 -23 45 39 c62 52 85 100
67 137 -18 39 -61 52 -88 28 -19 -17 -21 -17 -38 -2 -25 23 -65 21 -87 -3z"/>
<path d="M2442 914 c-12 -8 -22 -23 -22 -32 0 -25 35 -79 65 -98 26 -17 27
-16 62 17 19 19 38 43 43 54 18 48 -24 88 -65 61 -20 -13 -24 -13 -29 -1 -7
19 -26 19 -54 -1z"/>
<path d="M3202 848 c-22 -22 -13 -58 27 -100 l38 -41 32 22 c46 33 66 77 50
107 -13 26 -30 30 -59 14 -13 -7 -21 -7 -25 0 -9 14 -48 13 -63 -2z"/>
<path d="M2632 750 c-51 -48 -37 -108 46 -187 30 -29 58 -53 62 -53 15 0 103
79 123 110 38 61 29 119 -23 140 -23 9 -34 8 -59 -4 -17 -9 -31 -22 -31 -28 0
-6 -9 1 -21 16 -25 32 -66 34 -97 6z"/>
<path d="M2939 639 c-15 -15 -19 -28 -14 -47 6 -27 71 -102 87 -102 18 0 89
76 93 100 5 28 -18 69 -37 66 -7 -1 -23 -7 -34 -14 -18 -9 -24 -9 -34 3 -17
21 -36 19 -61 -6z"/>
</g>
</svg>
